<svg xmlns="http://www.w3.org/2000/svg" width="24" height="24" fill="none" viewBox="0 0 24 24">
    <path fill="#6569EE" d="M12 3.665c-4.596 0-8.335 3.74-8.335 8.335 0 4.596 3.74 8.335 8.335 8.335 4.596 0 8.335-3.74 8.335-8.335 0-4.596-3.74-8.335-8.335-8.335zM12 22C6.486 22 2 17.514 2 12S6.486 2 12 2s10 4.486 10 10-4.486 10-10 10z"/>
    <path fill="#6569EE" d="M14.935 12.833H12c-.461 0-.833-.372-.833-.833V6.604c0-.461.372-.833.833-.833.461 0 .833.372.833.833v4.563h2.102c.46 0 .832.372.832.833 0 .461-.371.833-.832.833z"/>
</svg>
