<svg xmlns="http://www.w3.org/2000/svg" width="20" height="20" fill="none" viewBox="0 0 20 20">
    <path fill="#000" d="M17.5 7.45c-.009-.077-.025-.152-.05-.225V7.15c-.04-.086-.093-.164-.158-.233l-5-5c-.07-.065-.148-.119-.234-.159-.024-.003-.05-.003-.075 0-.084-.048-.178-.08-.275-.091H8.333c-.663 0-1.299.263-1.767.732-.47.469-.733 1.105-.733 1.768V5H5c-.663 0-1.299.263-1.768.732-.469.47-.732 1.105-.732 1.768v8.333c0 .663.263 1.3.732 1.768.47.469 1.105.732 1.768.732h6.667c.663 0 1.299-.263 1.767-.732.47-.469.733-1.105.733-1.768V15H15c.663 0 1.299-.263 1.768-.732.469-.47.732-1.105.732-1.768V7.45zm-5-2.942l2.158 2.159h-1.325c-.22 0-.433-.088-.589-.244-.156-.157-.244-.369-.244-.59V4.508zm0 11.325c0 .221-.088.433-.244.59-.156.156-.368.244-.59.244H5c-.221 0-.433-.088-.59-.244-.156-.157-.243-.369-.243-.59V7.5c0-.221.087-.433.244-.59.156-.156.368-.243.589-.243h.833V12.5c0 .663.264 1.299.733 1.768.468.469 1.104.732 1.767.732H12.5v.833zm3.333-3.333c0 .221-.088.433-.244.59-.156.155-.368.243-.589.243H8.333c-.22 0-.433-.088-.589-.244-.156-.156-.244-.368-.244-.589V4.167c0-.221.088-.433.244-.59.156-.156.368-.244.59-.244h2.5v2.5c0 .663.263 1.3.732 1.768.468.469 1.104.732 1.767.732h2.5V12.5z" opacity=".2"/>
</svg>
