<svg xmlns="http://www.w3.org/2000/svg" width="24" height="24" fill="none" viewBox="0 0 24 24">
    <path fill="#000" fill-opacity=".15" d="M21.933 15.155c.012.11 0 .222-.04.33l-.021.061c-.424 1.18-1.056 2.276-1.868 3.232l-.042.05c-.099.116-.23.2-.377.239-.147.04-.302.034-.446-.017l-1.905-.677c-.7.576-1.489 1.032-2.337 1.35l-.368 1.992c-.028.15-.1.288-.209.395-.107.108-.246.18-.396.207l-.063.012c-.613.11-1.234.166-1.856.166h.007c.626 0 1.251-.056 1.86-.166l.064-.012c.15-.027.288-.1.396-.207.108-.107.18-.245.209-.395l.368-1.99c.848-.319 1.63-.771 2.334-1.348l1.903.678c.144.05.3.056.446.017.147-.04.279-.124.377-.24l.042-.05c.816-.962 1.441-2.048 1.866-3.226l.02-.061c.038-.11.05-.228.036-.34z"/>
    <path fill="#494DCF" d="M16.125 11.766c0-.71-.18-1.38-.497-1.964C14.93 8.515 13.568 7.64 12 7.64c-2.278 0-4.125 1.847-4.125 4.125 0 1.568.874 2.93 2.16 3.628.585.316 1.252.497 1.965.497 2.278 0 4.125-1.847 4.125-4.125zm-6.75 0c0-.701.274-1.36.769-1.857.497-.497 1.155-.768 1.856-.768.7 0 1.36.271 1.856.768.244.244.438.533.57.852.132.318.2.66.199 1.005 0 .7-.274 1.359-.769 1.856-.243.244-.533.438-.851.57-.319.131-.66.2-1.005.199-.7 0-1.36-.275-1.856-.77-.244-.243-.438-.532-.57-.85-.132-.32-.2-.66-.199-1.005z"/>
    <path fill="#494DCF" d="M13.924 22.317c.15-.027.288-.1.396-.207.108-.107.181-.245.209-.395l.368-1.992c.848-.318 1.638-.774 2.337-1.35l1.905.677c.144.05.3.057.446.017.147-.04.278-.123.377-.24l.042-.049c.816-.963 1.444-2.05 1.868-3.232l.021-.06c.04-.109.052-.221.04-.331-.021-.185-.11-.361-.258-.49l-1.53-1.31-.005-.003c.072-.445.11-.9.11-1.354 0-.396-.028-.795-.084-1.184-.007-.052-.017-.103-.024-.155l-.002-.016 1.535-1.313c.162-.138.255-.337.262-.543.003-.094-.011-.19-.044-.282l-.021-.06c-.423-1.182-1.056-2.277-1.868-3.232l-.042-.05c-.099-.116-.23-.199-.377-.239-.147-.04-.302-.034-.446.017l-1.905.677c-.704-.577-1.486-1.031-2.335-1.35h-.002l-.368-1.992c-.002-.012-.005-.026-.01-.038-.033-.141-.108-.27-.213-.37-.106-.1-.238-.168-.382-.195l-.063-.011c-1.221-.22-2.506-.22-3.727 0l-.063.011c-.15.028-.288.1-.396.207-.108.108-.18.246-.209.396l-.37 2.001c-.842.32-1.625.774-2.32 1.346l-1.92-.682c-.143-.051-.299-.057-.446-.017-.147.04-.278.123-.376.24l-.043.049c-.811.956-1.444 2.05-1.868 3.232l-.02.06c-.05.137-.058.284-.025.425.033.14.105.27.21.37.011.01.02.021.032.03l1.554 1.327v.002c-.072.441-.108.889-.108 1.336 0 .45.036.9.108 1.339L2.32 14.66c-.115.1-.198.231-.237.379-.04.147-.032.303.02.446l.02.061c.425 1.181 1.053 2.271 1.868 3.232l.043.05c.114.133.267.22.433.25.127.024.26.017.39-.028l1.919-.682.01.007c.695.57 1.471 1.022 2.31 1.338l.37 2.002c.028.15.1.288.209.395.108.108.246.18.396.207l.063.012c.612.11 1.238.166 1.864.166h.007c.623 0 1.249-.056 1.856-.166l.063-.012zm-.933-1.558c-.662.075-1.33.075-1.992 0l-.42-2.279-.885-.34c-.668-.253-1.29-.614-1.845-1.07l-.736-.608-2.189.779c-.398-.537-.731-1.116-.998-1.725l1.77-1.512-.153-.938c-.056-.349-.087-.71-.087-1.066 0-.359.028-.717.087-1.066l.152-.938-1.77-1.512c.266-.611.6-1.188 1-1.725l2.188.778.736-.607c.556-.457 1.177-.817 1.845-1.07l.888-.336.42-2.278c.658-.075 1.33-.075 1.992 0l.42 2.274.892.335c.673.253 1.299.614 1.859 1.073l.736.605 2.175-.771c.398.536.731 1.115.998 1.725l-1.75 1.497.152.935c.058.354.089.718.089 1.081s-.03.727-.09 1.08l-.154.94 1.75 1.498c-.265.611-.6 1.19-.998 1.725l-2.175-.771-.735.604c-.56.46-1.184.82-1.86 1.074l-.892.335-.42 2.274z"/>
</svg>
