<svg xmlns="http://www.w3.org/2000/svg" width="24" height="18" fill="none" viewBox="0 0 24 18">
    <path fill="#000" d="M15.75 9.75c0 .995-.395 1.948-1.098 2.652-.704.703-1.657 1.098-2.652 1.098-.995 0-1.948-.395-2.652-1.098-.703-.704-1.098-1.657-1.098-2.652 0-.995.395-1.948 1.098-2.652C10.052 6.395 11.005 6 12 6c.995 0 1.948.395 2.652 1.098.703.704 1.098 1.657 1.098 2.652z" opacity=".2"/>
    <path fill="#000" d="M3 3c-.796 0-1.559.316-2.121.879C.316 4.44 0 5.204 0 6v9c0 .796.316 1.559.879 2.121C1.44 17.684 2.204 18 3 18h18c.796 0 1.559-.316 2.121-.879.563-.562.879-1.325.879-2.121V6c0-.796-.316-1.559-.879-2.121C22.56 3.316 21.796 3 21 3h-1.758c-.796 0-1.559-.316-2.121-.879L15.879.879C15.316.316 14.554 0 13.758 0h-3.516c-.796 0-1.559.316-2.121.879L6.879 2.121C6.317 2.684 5.554 3 4.758 3H3zm.75 3c-.199 0-.39-.079-.53-.22C3.079 5.64 3 5.45 3 5.25s.079-.39.22-.53c.14-.141.331-.22.53-.22s.39.079.53.22c.141.14.22.331.22.53s-.079.39-.22.53c-.14.141-.331.22-.53.22zm13.5 3.75c0 1.392-.553 2.728-1.538 3.712C14.728 14.447 13.392 15 12 15c-1.392 0-2.728-.553-3.712-1.538-.985-.984-1.538-2.32-1.538-3.712 0-1.392.553-2.728 1.538-3.712C9.272 5.053 10.608 4.5 12 4.5c1.392 0 2.728.553 3.712 1.538.985.984 1.538 2.32 1.538 3.712z" opacity=".2"/>
</svg>
