<svg xmlns="http://www.w3.org/2000/svg" width="24" height="24" fill="none" viewBox="0 0 24 24">
    <g opacity=".2">
        <path stroke="#000" stroke-linecap="round" stroke-linejoin="round" stroke-width="2" d="M3.75 12.375h16.5M3.75 16.125h16.5M19.5 8.25h-15c-.415 0-.75.336-.75.75v10.5c0 .414.335.75.75.75h15c.414 0 .75-.336.75-.75V9c0-.414-.336-.75-.75-.75zM8.624 8.25V4.875c0-.895.356-1.754.989-2.386.633-.633 1.491-.989 2.386-.989.896 0 1.754.356 2.387.989.633.632.989 1.49.989 2.386V8.25"/>
    </g>
</svg>
