<svg xmlns="http://www.w3.org/2000/svg" width="32" height="32" fill="none" viewBox="0 0 32 32">
    <path fill="url(#paint0_linear)" d="M21.995 7.748c.585-.804 1.722-.991 2.43-.293 1.363 1.344 2.39 3 2.988 4.837.783 2.41.783 5.006 0 7.416s-2.31 4.51-4.36 6C21.003 27.198 18.534 28 16 28s-5.003-.802-7.053-2.292c-2.05-1.49-3.577-3.59-4.36-6-.783-2.41-.783-5.006 0-7.416.597-1.837 1.625-3.493 2.988-4.837.708-.698 1.845-.511 2.43.293.584.804.387 1.92-.275 2.662-.77.863-1.357 1.882-1.719 2.994-.548 1.687-.548 3.505 0 5.192.548 1.687 1.616 3.157 3.052 4.2C12.498 23.838 14.226 24.4 16 24.4c1.774 0 3.502-.562 4.937-1.604 1.435-1.043 2.504-2.513 3.052-4.2.548-1.687.548-3.505 0-5.192-.362-1.112-.95-2.13-1.72-2.994-.661-.742-.858-1.858-.274-2.662z"/>
    <rect width="4" height="9.6" x="14.4" y="3.2" fill="url(#paint1_linear)" rx="2"/>
    <defs>
        <linearGradient id="paint0_linear" x1="4" x2="13.087" y1="4" y2="32.719" gradientUnits="userSpaceOnUse">
            <stop stop-color="#E2ECF5"/>
            <stop offset="1" stop-color="#E8F1FA"/>
        </linearGradient>
        <linearGradient id="paint1_linear" x1="14.4" x2="20.487" y1="3.2" y2="11.215" gradientUnits="userSpaceOnUse">
            <stop stop-color="#E2ECF5"/>
            <stop offset="1" stop-color="#E8F1FA"/>
        </linearGradient>
    </defs>
</svg>
