<svg xmlns="http://www.w3.org/2000/svg" width="48" height="48" fill="none" viewBox="0 0 48 48">
    <path stroke="#DDDEEC" stroke-linecap="round" stroke-linejoin="round" stroke-width="3" d="M36.789 18.597H11.21c-.642 0-1.162.52-1.162 1.162v4.65c0 .643.52 1.163 1.162 1.163H36.79c.642 0 1.162-.52 1.162-1.162v-4.65c0-.643-.52-1.163-1.162-1.163zM35.626 25.573v10.463c0 .308-.122.604-.34.822-.218.218-.514.34-.823.34H13.537c-.309 0-.605-.122-.823-.34-.218-.218-.34-.514-.34-.822V25.573M24 18.597v18.601"/>
    <path stroke="#DDDEEC" stroke-linecap="round" stroke-linejoin="round" stroke-width="3" d="M30.577 16.953C28.932 18.597 24 18.597 24 18.597s0-4.933 1.644-6.577c.654-.653 1.541-1.02 2.466-1.02.925 0 1.811.368 2.465 1.022.654.653 1.022 1.54 1.022 2.465 0 .925-.367 1.811-1.02 2.466v0zM17.423 16.953C19.068 18.597 24 18.597 24 18.597s0-4.933-1.644-6.577c-.654-.653-1.541-1.02-2.466-1.02-.925 0-1.811.368-2.465 1.022-.654.653-1.021 1.54-1.022 2.465 0 .925.367 1.811 1.02 2.466v0z"/>
</svg>
