<svg xmlns="http://www.w3.org/2000/svg" width="80" height="80" fill="none" viewBox="0 0 80 80">
    <path fill="#6569EE" d="M55.87 18.157c.974-1.34 2.862-1.649 4.099-.546 3.952 3.525 6.915 8.048 8.563 13.119 1.957 6.025 1.957 12.515 0 18.54-1.958 6.026-5.773 11.277-10.898 15C52.508 67.995 46.335 70 40 70c-6.335 0-12.508-2.006-17.634-5.73-5.125-3.723-8.94-8.974-10.898-15-1.957-6.025-1.957-12.515 0-18.54 1.648-5.071 4.61-9.594 8.563-13.119 1.237-1.103 3.125-.795 4.099.546.974 1.34.66 3.203-.548 4.337-2.94 2.758-5.152 6.225-6.407 10.09-1.567 4.82-1.567 10.012 0 14.832 1.566 4.82 4.618 9.021 8.718 12C29.993 62.396 34.932 64 40 64s10.007-1.605 14.107-4.584c4.1-2.979 7.152-7.18 8.718-12 1.566-4.82 1.566-10.012 0-14.832-1.256-3.865-3.467-7.332-6.407-10.09-1.209-1.134-1.522-2.997-.548-4.337z"/>
    <rect width="6" height="22" x="37" y="8" fill="#6569EE" rx="3"/>
</svg>
