<svg width="24" height="24" viewBox="0 0 24 24" fill="none" xmlns="http://www.w3.org/2000/svg">
<rect x="3" y="3" width="18" height="18" rx="9" stroke="white" stroke-width="2"/>
<path d="M8.70711 11.2929C8.31658 10.9024 7.68342 10.9024 7.29289 11.2929C6.90237 11.6834 6.90237 12.3166 7.29289 12.7071L8.70711 11.2929ZM11 15L10.2929 15.7071L11.0314 16.4456L11.7372 15.6757L11 15ZM17.2372 9.67572C17.6103 9.26861 17.5828 8.63604 17.1757 8.26285C16.7686 7.88965 16.136 7.91716 15.7628 8.32428L17.2372 9.67572ZM7.29289 12.7071L10.2929 15.7071L11.7071 14.2929L8.70711 11.2929L7.29289 12.7071ZM11.7372 15.6757L17.2372 9.67572L15.7628 8.32428L10.2628 14.3243L11.7372 15.6757Z" fill="white"/>
</svg>
