<svg xmlns="http://www.w3.org/2000/svg" width="24" height="24" fill="none" viewBox="0 0 24 24">
    <path fill="#6569EE" d="M12 15.75c2.071 0 3.75-1.679 3.75-3.75 0-2.071-1.679-3.75-3.75-3.75-2.071 0-3.75 1.679-3.75 3.75 0 2.071 1.679 3.75 3.75 3.75z"/>
    <path fill="#6569EE" d="M7.757 7.757c.141-.14.22-.331.22-.53s-.079-.39-.22-.53c-.14-.141-.331-.22-.53-.22s-.39.08-.53.22C6 7.393 5.447 8.219 5.069 9.129c-.377.91-.571 1.886-.571 2.871 0 .985.194 1.96.571 2.87.377.91.93 1.737 1.628 2.433.07.07.152.125.243.163.09.038.188.057.287.057.098 0 .196-.02.287-.057.091-.038.174-.093.243-.163.07-.07.125-.152.163-.243.038-.091.057-.188.057-.287 0-.099-.02-.196-.057-.287-.038-.091-.093-.174-.163-.243-.557-.557-1-1.218-1.302-1.946-.302-.729-.457-1.509-.457-2.297 0-.788.155-1.569.457-2.297.302-.728.745-1.389 1.302-1.946zM19.5 12c.001-.985-.192-1.96-.57-2.87-.376-.91-.93-1.738-1.627-2.433-.07-.07-.152-.125-.243-.163-.09-.038-.188-.057-.287-.057-.098 0-.196.02-.287.057-.091.038-.174.093-.243.163-.07.07-.125.152-.163.243-.038.091-.057.189-.057.287 0 .098.02.196.057.287.038.091.093.174.163.243.558.557 1 1.218 1.302 1.946.302.729.457 1.509.457 2.297 0 .788-.155 1.569-.457 2.297-.302.728-.745 1.389-1.302 1.946-.141.14-.22.331-.22.53s.079.39.22.53c.14.141.331.22.53.22s.39-.08.53-.22c.698-.695 1.25-1.522 1.628-2.432.377-.91.57-1.886.569-2.871z" opacity=".6"/>
    <path fill="#6569EE" d="M3.016 15.795c-.756-1.787-.961-3.76-.589-5.664.373-1.905 1.305-3.654 2.679-5.025.14-.141.22-.332.219-.53 0-.2-.08-.39-.22-.53-.14-.141-.331-.22-.53-.22s-.39.079-.53.22C2.999 5.088 2.17 6.328 1.604 7.693 1.038 9.06.746 10.522.746 12c0 1.478.292 2.94.858 4.306.566 1.365 1.395 2.605 2.441 3.649.07.07.152.125.243.163.091.037.189.057.287.057.099 0 .196-.02.287-.058.091-.037.174-.092.244-.162s.125-.152.162-.243c.038-.091.057-.189.057-.287 0-.099-.019-.196-.057-.287-.037-.091-.093-.174-.162-.244-.89-.888-1.6-1.94-2.09-3.1zM22.366 7.62c-.565-1.336-1.384-2.55-2.411-3.575-.07-.07-.152-.125-.243-.163-.091-.037-.189-.057-.287-.057-.099 0-.196.02-.287.057-.091.038-.174.093-.244.163s-.125.152-.162.243c-.038.091-.057.189-.057.287 0 .099.019.196.057.287.037.091.093.174.162.244.907.904 1.626 1.98 2.117 3.162.49 1.183.743 2.451.743 3.732 0 1.28-.253 2.549-.744 3.732-.49 1.183-1.21 2.258-2.116 3.162-.14.141-.22.332-.22.53 0 .2.08.39.22.531.141.14.332.22.53.22.2 0 .39-.08.531-.22 1.582-1.584 2.657-3.603 3.086-5.8.43-2.196.194-4.472-.675-6.534z" opacity=".3"/>
</svg>
