<svg xmlns="http://www.w3.org/2000/svg" width="16" height="16" fill="none" viewBox="0 0 16 16">
    <g clip-path="url(#clip0)">
        <path fill="#FFDB5E" d="M15.536 7.963c0-.224-.053-.434-.143-.624-.596-1.923-3.386-1.783-7.355-1.876-.663-.016-.284-.8-.05-2.52.15-1.118-.57-2.836-1.783-2.836-2 0-.076 1.577-1.844 5.477-.944 2.083-3.055.916-3.055 3.009v4.764c0 .815.08 1.598 1.226 1.727 1.11.125.86.916 2.463.916h8.02c.816 0 1.48-.665 1.48-1.482 0-.338-.118-.647-.31-.897.454-.253.765-.732.765-1.288 0-.338-.118-.646-.31-.896.455-.253.767-.732.767-1.289 0-.404-.163-.77-.427-1.038.336-.272.556-.682.556-1.147z"/>
        <path fill="#EE9547" d="M10.231 9.444h3.824c.52 0 1.008-.278 1.274-.726.11-.184.048-.423-.136-.533-.185-.11-.424-.048-.533.137-.126.213-.359.344-.605.344h-3.916c-.388 0-.703-.315-.703-.703 0-.388.315-.704.703-.704h2.617c.214 0 .389-.174.389-.389 0-.214-.175-.389-.39-.389H10.14c-.817 0-1.482.665-1.482 1.482 0 .455.211.858.536 1.13-.273.27-.444.643-.444 1.055 0 .457.213.861.539 1.133-.272.268-.44.64-.44 1.052 0 .498.248.937.626 1.206-.233.261-.378.602-.378.98 0 .816.664 1.48 1.48 1.48h2.438c.52 0 1.009-.277 1.275-.725.11-.184.048-.423-.136-.533-.185-.109-.424-.049-.533.136-.127.213-.36.345-.606.345h-2.437c-.388 0-.704-.316-.704-.704 0-.388.316-.703.704-.703h2.892c.52 0 1.008-.279 1.274-.726.11-.185.049-.424-.136-.533-.186-.112-.424-.049-.533.136-.128.216-.355.345-.605.345h-3.14c-.388 0-.703-.316-.703-.704 0-.388.315-.704.703-.704h3.596c.52 0 1.009-.277 1.275-.725.11-.184.049-.423-.136-.533-.185-.11-.424-.049-.533.136-.128.216-.355.345-.606.345h-3.694c-.388 0-.703-.316-.703-.704 0-.388.315-.704.703-.704z"/>
    </g>
    <defs>
        <clipPath id="clip0">
            <path fill="#fff" d="M0 0H16V16H0z"/>
        </clipPath>
    </defs>
</svg>
