<svg xmlns="http://www.w3.org/2000/svg" width="16" height="16" fill="none" viewBox="0 0 16 16">
    <path fill="#009FE8" d="M13.44 0C14.848 0 16 1.154 16 2.565v8.305s-.512-.064-2.816-.834c-.64-.224-1.504-.545-2.464-.898.576-.994 1.024-2.148 1.344-3.366H8.896V4.649h3.872v-.641H8.896V2.116H7.328c-.288 0-.288.289-.288.289V4.04H3.136v.641H7.04v1.09H3.808v.642h6.272c-.224.801-.544 1.539-.896 2.212-2.016-.673-4.192-1.218-5.568-.865-.864.224-1.44.609-1.76.994C.352 10.58 1.44 13.37 4.608 13.37c1.888 0 3.712-1.058 5.12-2.79C11.84 11.607 16 13.34 16 13.34v.096C16 14.845 14.848 16 13.44 16H2.56C1.152 16 0 14.846 0 13.435V2.565C0 1.155 1.152 0 2.56 0h10.88zM3.904 8.69c1.472-.16 2.848.416 4.48 1.218C7.2 11.383 5.76 12.313 4.32 12.313c-2.496 0-3.232-1.956-1.984-3.046.416-.353 1.152-.545 1.568-.578z"/>
</svg>
