<svg xmlns="http://www.w3.org/2000/svg" width="48" height="48" fill="none" viewBox="0 0 48 48">
    <path stroke="#DDDEEC" stroke-linecap="round" stroke-linejoin="round" stroke-width="3" d="M19 28c3.866 0 7-3.134 7-7s-3.134-7-7-7-7 3.134-7 7 3.134 7 7 7zM28 14.262c.866-.27 1.773-.333 2.662-.18.889.15 1.738.513 2.49 1.06.753.548 1.391 1.269 1.872 2.114.481.845.794 1.795.917 2.785.123.991.054 2-.203 2.958-.257.959-.696 1.845-1.286 2.6-.59.753-1.32 1.358-2.138 1.772-.819.414-1.707.629-2.607.629M8 34c1.128-1.853 2.625-3.366 4.366-4.41C14.106 28.545 16.039 28 18 28c1.961 0 3.893.545 5.634 1.59 1.74 1.043 3.238 2.556 4.366 4.41"/>
    <path stroke="#DDDEEC" stroke-linecap="round" stroke-linejoin="round" stroke-width="3" d="M30 28c1.961-.002 3.894.543 5.635 1.587C37.375 30.632 38.873 32.145 40 34"/>
</svg>
