<svg xmlns="http://www.w3.org/2000/svg" width="16" height="16" fill="none" viewBox="0 0 16 16">
    <path fill="#EF9645" d="M14.357 10.82c-.31-.448-.137-1.097-.214-1.813-.079-1.17-.581-2.302-1.555-3.207L9.269 2.714s-.653-.608-1.262.046c-.608.654.046 1.262.046 1.262l1.402 1.304 1.215 1.13s-.305.327-1.65-.924L4.478 1.308S3.824.7 3.215 1.354c-.608.654.046 1.262.046 1.262l4.295 3.995c-.01-.009-.325.308-.33.302L2.63 2.64s-.654-.608-1.263.046c-.608.654.046 1.262.046 1.262l4.596 4.275c.005.006-.29.34-.282.348L1.763 4.882S1.108 4.274.5 4.928c-.608.654.046 1.263.046 1.263l4.215 3.92c.039.036-.222.403-.174.448L1.55 7.734S.896 7.126.287 7.78c-.608.655.046 1.263.046 1.263l4.954 4.606c.827.77 1.677 1.159 2.7 1.301.209.03.476.03.585.043.345.043.648.166 1.054.415.523.32 1.306.453 1.756-.028l1.535-1.642 1.418-1.517c.45-.48.369-.896.021-1.4z"/>
    <path fill="#FA743E" d="M.87 15.567c-.114 0-.228-.043-.315-.13-.174-.174-.174-.455 0-.629l1.578-1.577c.174-.174.455-.174.629 0s.174.455 0 .629l-1.578 1.577c-.087.087-.2.13-.315.13zm2.998.41c-.049 0-.099-.008-.148-.025-.231-.08-.353-.334-.272-.566l.432-1.233c.08-.231.334-.353.566-.273.231.082.354.335.272.567l-.431 1.232c-.064.183-.236.298-.42.298zM.46 12.569c-.183 0-.355-.114-.42-.296-.08-.232.04-.485.272-.567l1.109-.392c.232-.08.485.04.567.271.082.232-.04.486-.271.567l-1.109.392c-.05.017-.1.025-.148.025zm13.093-9.674c-.113 0-.227-.043-.314-.13-.174-.174-.174-.455 0-.629L14.818.558c.174-.173.454-.173.628 0 .174.174.174.455 0 .63l-1.578 1.577c-.087.087-.2.13-.315.13zm-1.85-.754c-.049 0-.099-.009-.147-.025-.232-.081-.354-.335-.273-.567l.431-1.232c.082-.232.334-.354.566-.273.232.08.354.334.273.566l-.43 1.233c-.065.183-.237.298-.42.298zm2.73 2.566c-.183 0-.355-.114-.42-.296-.081-.232.04-.486.272-.567l1.108-.392c.232-.082.486.04.567.271.082.232-.04.485-.27.567l-1.11.392c-.048.017-.098.025-.147.025z"/>
    <path fill="#FFDB5E" d="M15.729 10.588c-.294-.46-.1-1.102-.152-1.82-.04-1.172-.504-2.32-1.447-3.259l-3.212-3.195s-.633-.63-1.264.004c-.63.633.004 1.263.004 1.263l1.357 1.35 1.176 1.17s-.315.317-1.617-.978L6.176.747s-.633-.63-1.263.004c-.63.633.003 1.262.003 1.262l4.158 4.138c-.009-.009-.335.297-.34.29l-4.45-4.426s-.633-.63-1.263.003c-.63.634.003 1.263.003 1.263l4.45 4.428c.005.005-.303.33-.294.338L3.342 4.228s-.633-.63-1.263.004c-.63.633.003 1.263.003 1.263l4.08 4.06c.038.037-.235.396-.189.443l-2.94-2.926s-.633-.63-1.264.004c-.63.633.003 1.263.003 1.263l4.796 4.77c.8.797 1.636 1.214 2.655 1.391.208.036.474.045.583.063.343.055.642.188 1.04.45.51.338 1.29.497 1.756.031l1.59-1.589 1.467-1.467c.466-.467.4-.885.07-1.4z"/>
</svg>
