<svg xmlns="http://www.w3.org/2000/svg" width="24" height="24" fill="none" viewBox="0 0 24 24">
    <path fill="#FDD888" d="M19 18.08c0 1.056-.84 1.92-1.867 1.92H6.867C5.84 20 5 19.136 5 18.08V9.92C5 8.864 5.84 8 6.867 8h10.266C18.16 8 19 8.864 19 9.92v8.16z"/>
    <path fill="#FDD888" d="M20 9c0 1.1-.8 2-1.778 2H5.778C4.8 11 4 10.1 4 9s.8-2 1.778-2h12.444C19.2 7 20 7.9 20 9z"/>
    <path fill="#FCAB40" d="M5 11h14v1H5v-1z"/>
    <path fill="#FF5050" d="M12.5 5h-1c-.829 0-1.5.63-1.5 1.406V20h4V6.406C14 5.63 13.329 5 12.5 5z"/>
    <path fill="#FF5050" d="M11.094 7c.498 0 .572-.25.163-.555L8.211 4.166c-.409-.306-.945-.177-1.193.285L6.105 6.16c-.248.463-.042.841.457.841h4.532zm1.812 0c-.498 0-.572-.25-.163-.555l3.046-2.279c.409-.306.945-.177 1.193.285l.913 1.708c.247.463.042.841-.457.841h-4.532z"/>
</svg>
