<svg xmlns="http://www.w3.org/2000/svg" width="24" height="24" fill="none" viewBox="0 0 24 24">
    <path fill="#6569EE" d="M14.247 20.25v-6h-4.5v6h-6v-9.418c0-.105.022-.208.064-.304.043-.095.104-.18.182-.251l7.5-6.82c.137-.125.317-.194.504-.194.186 0 .366.07.504.195l7.5 6.819c.078.07.14.156.182.251.042.096.064.2.064.304v9.418h-6z" opacity=".2"/>
    <path stroke="#6569EE" stroke-linecap="round" stroke-linejoin="round" stroke-width="2" d="M20.247 20.25v-9.418c0-.105-.022-.208-.064-.304-.042-.095-.104-.18-.181-.251l-7.5-6.82c-.139-.125-.319-.194-.505-.194-.187 0-.367.07-.505.195l-7.5 6.819c-.077.07-.138.156-.18.251-.043.096-.065.2-.065.304v9.418M1.497 20.25h21"/>
    <path stroke="#6569EE" stroke-linecap="round" stroke-linejoin="round" stroke-width="2" d="M14.247 20.25V15c0-.2-.08-.39-.22-.531-.14-.14-.331-.22-.53-.22h-3c-.2 0-.39.08-.53.22-.141.14-.22.331-.22.53v5.25"/>
</svg>
