<svg xmlns="http://www.w3.org/2000/svg" width="24" height="24" fill="none" viewBox="0 0 24 24">
    <path fill="#6569EE" d="M4.23 18.377c.024.098.067.191.127.273.06.081.137.15.224.2.087.052.184.085.285.098.1.013.202.006.3-.022 4.47-1.234 9.192-1.235 13.663-.001.098.027.2.035.3.022.1-.013.198-.046.285-.098.087-.05.163-.12.224-.2.06-.082.103-.175.126-.274l2.39-10.154c.032-.136.025-.278-.02-.41-.044-.133-.124-.25-.232-.34-.107-.089-.238-.146-.376-.165-.138-.019-.28 0-.407.058L16.377 9.47c-.171.076-.365.086-.542.026-.178-.06-.327-.183-.418-.347l-2.761-4.97c-.065-.117-.16-.214-.276-.282-.115-.068-.246-.104-.38-.104s-.265.036-.38.104c-.116.068-.21.165-.276.282l-2.76 4.97c-.092.164-.24.288-.419.347-.177.06-.37.05-.542-.026L2.88 7.363c-.128-.056-.268-.076-.407-.057-.138.019-.268.076-.376.165-.107.09-.188.206-.232.339-.045.132-.052.274-.02.41l2.386 10.157z" opacity=".2"/>
    <path stroke="#6569EE" stroke-linecap="round" stroke-linejoin="round" stroke-width="2" d="M4.23 18.377c.024.098.067.191.127.273.06.081.137.15.224.2.087.052.184.085.285.098.1.013.202.006.3-.022 4.47-1.234 9.192-1.235 13.663-.001.098.027.2.035.3.022.1-.013.198-.046.285-.098.087-.05.163-.12.224-.2.06-.082.103-.175.126-.274l2.39-10.154c.032-.136.025-.278-.02-.41-.044-.133-.124-.25-.232-.34-.107-.089-.238-.146-.376-.165-.138-.019-.28 0-.407.058L16.377 9.47c-.171.076-.365.086-.542.026-.178-.06-.327-.183-.418-.347l-2.761-4.97c-.065-.117-.16-.214-.276-.282-.115-.068-.246-.104-.38-.104s-.265.036-.38.104c-.116.068-.21.165-.276.282l-2.76 4.97c-.092.164-.24.288-.419.347-.177.06-.37.05-.542-.026L2.88 7.363c-.128-.056-.268-.076-.407-.057-.138.019-.268.076-.376.165-.107.09-.188.206-.232.339-.045.132-.052.274-.02.41l2.386 10.157zM9 15.157c1.995-.21 4.005-.21 6 0"/>
</svg>
