<svg xmlns="http://www.w3.org/2000/svg" width="16" height="16" fill="none" viewBox="0 0 16 16">
    <path fill="#fff" d="M6.337 10.186c-.838.47-.962-.264-.962-.264l-1.05-2.465c-.404-1.171.35-.528.35-.528s.646.492 1.137.792c.49.3 1.05.088 1.05.088l6.866-3.187C12.46 3.037 10.368 2 8 2 4.134 2 1 4.759 1 8.162c0 1.957 1.038 3.7 2.654 4.829l-.292 1.685s-.142.492.35.264c.336-.156 1.192-.713 1.701-1.053.8.28 1.673.436 2.587.436 3.866 0 7-2.758 7-6.161 0-.986-.264-1.917-.732-2.743-2.187 1.324-7.275 4.4-7.93 4.767z"/>
</svg>
