<svg width="24" height="24" viewBox="0 0 24 24" fill="none" xmlns="http://www.w3.org/2000/svg">
<rect x="3" y="3" width="18" height="18" rx="9" stroke="white" stroke-width="2"/>
<path d="M9.70711 8.29289C9.31658 7.90237 8.68342 7.90237 8.29289 8.29289C7.90237 8.68342 7.90237 9.31658 8.29289 9.70711L9.70711 8.29289ZM12 12L11.2929 12.7071L12 13.4142L12.7071 12.7071L12 12ZM15.7071 9.70711C16.0976 9.31658 16.0976 8.68342 15.7071 8.29289C15.3166 7.90237 14.6834 7.90237 14.2929 8.29289L15.7071 9.70711ZM8.29289 9.70711L11.2929 12.7071L12.7071 11.2929L9.70711 8.29289L8.29289 9.70711ZM12.7071 12.7071L15.7071 9.70711L14.2929 8.29289L11.2929 11.2929L12.7071 12.7071Z" fill="white"/>
<path d="M14.2929 15.7071C14.6834 16.0976 15.3166 16.0976 15.7071 15.7071C16.0976 15.3166 16.0976 14.6834 15.7071 14.2929L14.2929 15.7071ZM12 12L12.7071 11.2929L12 10.5858L11.2929 11.2929L12 12ZM8.29289 14.2929C7.90237 14.6834 7.90237 15.3166 8.29289 15.7071C8.68342 16.0976 9.31658 16.0976 9.70711 15.7071L8.29289 14.2929ZM15.7071 14.2929L12.7071 11.2929L11.2929 12.7071L14.2929 15.7071L15.7071 14.2929ZM11.2929 11.2929L8.29289 14.2929L9.70711 15.7071L12.7071 12.7071L11.2929 11.2929Z" fill="white"/>
</svg>
