<svg xmlns="http://www.w3.org/2000/svg" width="24" height="24" fill="none" viewBox="0 0 24 24">
    <path fill="#6569EE" d="M12 3c-1.82 0-3.598.552-5.099 1.584-1.5 1.03-2.652 2.493-3.304 4.193-.652 1.7-.773 3.557-.348 5.327.426 1.77 1.379 3.37 2.732 4.587.565-1.11 1.426-2.044 2.488-2.695C9.532 15.344 10.754 15 12 15c-.742 0-1.467-.22-2.083-.632-.617-.412-1.098-.998-1.382-1.683-.283-.685-.358-1.44-.213-2.167.145-.727.502-1.395 1.026-1.92.525-.524 1.193-.881 1.92-1.026.728-.145 1.482-.07 2.167.213.685.284 1.271.765 1.683 1.382.412.616.632 1.341.632 2.083 0 .995-.395 1.948-1.098 2.652C13.948 14.605 12.995 15 12 15c1.246 0 2.468.344 3.53.996 1.063.651 1.924 1.584 2.489 2.695 1.353-1.217 2.306-2.817 2.732-4.587.425-1.77.304-3.627-.348-5.327-.652-1.7-1.804-3.162-3.304-4.193C15.599 3.552 13.82 3 12 3z" opacity=".2"/>
    <path stroke="#6569EE" stroke-miterlimit="10" stroke-width="2" d="M12 21c4.97 0 9-4.03 9-9s-4.03-9-9-9-9 4.03-9 9 4.03 9 9 9z"/>
    <path stroke="#6569EE" stroke-miterlimit="10" stroke-width="2" d="M12 15c2.071 0 3.75-1.679 3.75-3.75 0-2.071-1.679-3.75-3.75-3.75-2.071 0-3.75 1.679-3.75 3.75C8.25 13.321 9.929 15 12 15z"/>
    <path stroke="#6569EE" stroke-linecap="round" stroke-linejoin="round" stroke-width="2" d="M5.981 18.691c.565-1.11 1.426-2.043 2.489-2.695C9.532 15.345 10.754 15 12 15s2.468.345 3.53.996c1.063.652 1.924 1.585 2.489 2.695"/>
</svg>
