<svg xmlns="http://www.w3.org/2000/svg" width="16" height="16" fill="none" viewBox="0 0 16 16">
    <path fill="#fff" d="M8 3c-.989 0-1.956.293-2.778.843-.822.55-1.463 1.33-1.841 2.244-.379.913-.478 1.919-.285 2.888.193.97.67 1.861 1.368 2.56.7.7 1.59 1.176 2.56 1.369.97.193 1.976.094 2.89-.285.913-.378 1.694-1.019 2.243-1.841.55-.822.843-1.79.843-2.778-.002-1.326-.529-2.597-1.466-3.534C10.596 3.53 9.326 3.001 8 3zm-.385 2.692c0-.102.04-.2.113-.272.072-.072.17-.112.272-.112.102 0 .2.04.272.112.072.072.113.17.113.272v2.693c0 .102-.04.2-.113.272-.072.072-.17.112-.272.112-.102 0-.2-.04-.272-.112-.072-.073-.113-.17-.113-.272V5.692zm.385 5c-.114 0-.226-.034-.32-.097-.095-.063-.17-.153-.213-.259-.044-.105-.055-.221-.033-.333.022-.112.077-.215.158-.296.08-.08.184-.135.295-.157.112-.023.228-.011.334.032.105.044.195.118.259.213.063.095.097.206.097.32 0 .153-.06.3-.17.408-.107.109-.254.17-.407.17z"/>
</svg>
