<svg xmlns="http://www.w3.org/2000/svg" width="24" height="24" fill="none" viewBox="0 0 24 24">
    <path fill="#6569EE" fill-rule="evenodd" d="M15.085 4.853c.119-.445.358-.848.691-1.165.334-.318.748-.537 1.198-.634.45-.097.918-.068 1.352.084.435.152.819.42 1.11.777.292.356.48.785.543 1.241.063.456-.001.92-.185 1.343-.184.421-.481.784-.858 1.048s-.82.42-1.279.448c.228.644.344 1.322.343 2.005v6h1c.55 0 1 .45 1 1s-.45 1-1 1h-4v1c0 .796-.316 1.559-.879 2.121-.562.563-1.325.879-2.121.879s-1.559-.316-2.121-.879C9.316 20.56 9 19.796 9 19v-1H5c-.55 0-1-.45-1-1s.45-1 1-1h1v-6c0-1.418.502-2.79 1.418-3.873C8.333 5.044 9.602 4.32 11 4.083V3c0-.265.105-.52.293-.707C11.48 2.105 11.735 2 12 2c.265 0 .52.105.707.293.188.187.293.442.293.707v1.083c.737.124 1.444.385 2.085.77zM12 20c.265 0 .52-.105.707-.293.188-.187.293-.442.293-.707v-1h-2v1c0 .265.105.52.293.707.187.188.442.293.707.293zm-4-4h8v-6c0-1.06-.421-2.078-1.172-2.828C14.078 6.422 13.061 6 12 6c-1.06 0-2.078.421-2.828 1.172C8.422 7.922 8 8.939 8 10v6z" clip-rule="evenodd"/>
</svg>
