<svg xmlns="http://www.w3.org/2000/svg" width="24" height="24" fill="none" viewBox="0 0 24 24">
    <path fill="#6569EE" d="M13.833 6.667C15.306 6.667 16.5 5.473 16.5 4c0-1.473-1.194-2.667-2.667-2.667-1.472 0-2.666 1.194-2.666 2.667 0 1.473 1.194 2.667 2.666 2.667zM16.56 17.487c-.074-.05-.156-.084-.244-.101-.087-.017-.176-.017-.263.001-.087.018-.17.053-.243.104-.073.05-.135.114-.183.189-.645.954-1.434 1.802-2.34 2.513-.22.167-1.04.8-1.387.667-.24-.073-.1-.547-.053-.747l.353-1.046c.147-.427 2.7-8 2.98-8.867.413-1.267.233-2.513-1.653-2.213-.514.053-5.72.726-5.814.733-.087.006-.173.029-.251.067-.08.04-.15.093-.207.159-.058.066-.103.143-.13.226-.029.083-.04.17-.035.258.006.088.029.173.067.252.04.079.093.149.159.207.066.058.143.102.226.13.083.028.17.04.258.034 0 0 2-.26 2.22-.28.113-.01.226.011.327.063.1.052.184.132.24.23.12.374.104.778-.047 1.14-.173.667-2.913 8.387-3 8.834-.093.374-.067.767.074 1.126.14.358.39.664.713.874.605.404 1.327.598 2.053.553.706-.008 1.405-.148 2.06-.413 1.66-.667 3.393-2.44 4.307-3.833.078-.142.103-.307.068-.466-.034-.158-.125-.298-.255-.394z"/>
</svg>
