<svg xmlns="http://www.w3.org/2000/svg" width="24" height="24" fill="none" viewBox="0 0 24 24">
    <rect width="19.2" height="19.2" x="2.4" y="2.4" fill="#98E733" rx="9.6"/>
    <path fill="#fff" d="M9.107 11.893c-.39-.39-1.024-.39-1.414 0-.39.39-.39 1.024 0 1.414l1.414-1.414zM11.4 15.6l-.707.707.738.739.706-.77-.737-.676zm6.237-5.324c.373-.407.346-1.04-.061-1.413s-1.04-.346-1.413.061l1.474 1.352zm-9.944 3.031l3 3 1.414-1.414-3-3-1.414 1.414zm4.444 2.969l5.5-6-1.474-1.352-5.5 6 1.474 1.352z"/>
</svg>
