<svg xmlns="http://www.w3.org/2000/svg" width="24" height="24" fill="none" viewBox="0 0 24 24">
    <path fill="#6569EE" d="M21.7 13.35l-1 1-2.05-2.05 1-1c.103-.1.241-.157.385-.157.144 0 .282.056.385.157l1.28 1.28c.21.21.21.56 0 .77zM12 18.94l6.06-6.06 2.05 2.05L14.06 21H12v-2.06zM12 14c-4.42 0-8 1.79-8 4v2h6v-1.89l4-4c-.66-.08-1.33-.11-2-.11zm0-10c-1.06 0-2.078.421-2.828 1.172C8.422 5.922 8 6.939 8 8c0 1.06.421 2.078 1.172 2.828C9.922 11.578 10.939 12 12 12c1.06 0 2.078-.421 2.828-1.172C15.578 10.078 16 9.061 16 8c0-1.06-.421-2.078-1.172-2.828C14.078 4.422 13.061 4 12 4z"/>
</svg>
