<svg xmlns="http://www.w3.org/2000/svg" width="100" height="100" fill="none" viewBox="0 0 100 100">
    <path fill="#fff" fill-rule="evenodd" d="M65.407 23.46c1.608-4.454 4.654-7.459 8.15-7.459H26.442c-3.494 0-6.541 3.005-8.15 7.46h47.114z" clip-rule="evenodd" opacity=".26"/>
    <path fill="#BDBDBD" d="M73.556 45.391c5.17 0 9.36-6.58 9.36-14.695 0-8.117-4.19-14.696-9.36-14.696-5.169 0-9.36 6.58-9.36 14.696s4.191 14.695 9.36 14.695z"/>
    <path fill="#9A9A9A" d="M66.249 45.391c5.169 0 9.36-6.58 9.36-14.695 0-8.117-4.191-14.696-9.36-14.696-5.17 0-9.36 6.58-9.36 14.696s4.19 14.695 9.36 14.695z" opacity=".28"/>
    <path fill="#B6B8F3" d="M89.094 24.494H10.906C9.854 24.494 9 25.338 9 26.38v5.112c0 1.041.854 1.886 1.906 1.886h78.188c1.052 0 1.906-.845 1.906-1.886V26.38c0-1.042-.854-1.886-1.906-1.886z"/>
    <path fill="#99ADF9" d="M56.89 33.434h12.593s-1.374-1.63-1.374-4.446c0-2.815 1.374-4.493 1.374-4.493H56.89v8.939zM10.556 24.494h10.139v8.94H10.556c-.204 0-.406-.04-.594-.116-.189-.078-.36-.19-.504-.333-.144-.143-.258-.312-.337-.499-.078-.186-.118-.386-.118-.588V26.03c0-.202.04-.402.118-.588.079-.186.193-.356.337-.498.144-.143.315-.256.504-.333.188-.078.39-.117.594-.117z" opacity=".48"/>
    <path fill="#D0D1F4" d="M64.197 30.696c0-8.116 4.187-14.695 9.36-14.695H26.442c-5.17 0-9.36 6.58-9.36 14.695s4.187 14.695 9.36 14.695h47.113c-5.17 0-9.36-6.579-9.36-14.695z"/>
    <path fill="#FEC272" fill-rule="evenodd" d="M67.103 41.34H19.988c1.679 2.51 3.951 4.051 6.455 4.051h47.113c-2.502 0-4.774-1.54-6.453-4.051z" clip-rule="evenodd" opacity=".26"/>
    <path fill="#E1ECFF" d="M73.556 45.391H26.443s.248 30.229-9.36 38.61H41.95L43.9 81.99l.678 2.01h3.94l1.481-1.258.873 1.257h8.87l4.455-4.945V84h2.575s9.276-12.277 6.784-38.608z"/>
    <path fill="#E1ECFF" fill-rule="evenodd" d="M73.954 51.975c-.052-2.088-.18-4.282-.398-6.584H26.443s.021 2.644-.197 6.584h47.708z" clip-rule="evenodd" opacity=".75"/>
    <path fill="#fff" fill-rule="evenodd" d="M65.407 23.46c1.608-4.454 4.654-7.459 8.15-7.459H26.442c-3.494 0-6.541 3.005-8.15 7.46h47.114z" clip-rule="evenodd" opacity=".3"/>
</svg>
