<svg width="100" height="100" viewBox="0 0 100 100" fill="none" xmlns="http://www.w3.org/2000/svg">
<path d="M50 5.55554C41.2097 5.55554 32.6168 8.16216 25.308 13.0458C17.9991 17.9294 12.3026 24.8707 8.93869 32.9918C5.5748 41.113 4.69465 50.0493 6.40955 58.6707C8.12445 67.292 12.3574 75.2113 18.573 81.427C24.7887 87.6426 32.7079 91.8755 41.3293 93.5904C49.9507 95.3053 58.887 94.4252 67.0082 91.0613C75.1293 87.6974 82.0706 82.0008 86.9542 74.692C91.8378 67.3831 94.4445 58.7903 94.4445 50C94.4445 38.2126 89.7619 26.908 81.427 18.573C73.092 10.2381 61.7874 5.55554 50 5.55554ZM79.0278 35.0833L42.5278 71.5555L20.9722 50C20.2355 49.2633 19.8216 48.2641 19.8216 47.2222C19.8216 46.1803 20.2355 45.1811 20.9722 44.4444C21.7089 43.7077 22.7081 43.2938 23.75 43.2938C24.7919 43.2938 25.7911 43.7077 26.5278 44.4444L42.5833 60.5L73.5278 29.5833C73.8926 29.2185 74.3256 28.9292 74.8022 28.7318C75.2789 28.5343 75.7897 28.4327 76.3056 28.4327C76.8214 28.4327 77.3323 28.5343 77.8089 28.7318C78.2855 28.9292 78.7186 29.2185 79.0833 29.5833C79.4481 29.9481 79.7375 30.3812 79.9349 30.8578C80.1323 31.3344 80.2339 31.8452 80.2339 32.3611C80.2339 32.877 80.1323 33.3878 79.9349 33.8644C79.7375 34.341 79.4481 34.7741 79.0833 35.1389L79.0278 35.0833Z" fill="#98E733"/>
</svg>
