<svg xmlns="http://www.w3.org/2000/svg" width="24" height="24" fill="none" viewBox="0 0 24 24">
    <path fill="#6569EE" d="M22 17.002c0 1.368-.468 2.694-1.325 3.76-.857 1.065-2.052 1.806-3.388 2.1l-.638-1.914c.584-.096 1.14-.32 1.627-.658.487-.337.893-.777 1.189-1.29H17c-.53 0-1.04-.21-1.414-.586C15.21 18.04 15 17.53 15 17v-4c0-.53.21-1.04.586-1.414C15.96 11.21 16.47 11 17 11h2.938c-.244-1.933-1.185-3.71-2.647-5C15.83 4.713 13.948 4.002 12 4.002c-1.948 0-3.83.711-5.291 2C5.247 7.289 4.306 9.067 4.062 11H7c.53 0 1.04.21 1.414.586C8.79 11.96 9 12.47 9 13v4c0 .53-.21 1.04-.586 1.414C8.04 18.79 7.53 19 7 19H4c-.53 0-1.04-.21-1.414-.586C2.21 18.04 2 17.53 2 17v-5C2 6.477 6.477 2 12 2s10 4.477 10 10v5.002z"/>
</svg>
