<svg xmlns="http://www.w3.org/2000/svg" width="100" height="77" fill="none" viewBox="0 0 100 77">
    <ellipse cx="42.498" cy="64.314" fill="url(#paint0_linear)" rx="21.982" ry="3.654"/>
    <path fill="#F6E266" d="M51.934 24.881l9.614 2.447-5.044 3.879-9.615-2.444 5.045-3.882zM43.722 22.797l-23.558-5.988 2.557 5.813 23.558 5.985-2.557-5.81zM46.536 29.117L22.94 23.118l-6.82 26.195 23.596 5.998 6.821-26.194z"/>
    <path fill="#E94C2D" d="M30.108 52.87l-4.382-1.114 6.82-26.194 4.381 1.114-6.819 26.194z"/>
    <path fill="#F5C91D" d="M56.074 31.542l-9.617-2.444-6.82 26.192 9.618 2.446 6.819-26.194z"/>
    <path fill="#E94C2D" d="M45.128 56.686l-1.363-.346 6.819-26.194 1.366.346-6.822 26.194z"/>
    <path fill="#F5C91D" d="M43.94 23.295l-23.555-5.988 2.554 5.812 23.558 5.987-2.557-5.81z"/>
    <path fill="url(#paint1_linear)" d="M51.502 25.216l9.617 2.444-5.045 3.882-9.617-2.444 5.044-3.882z"/>
    <path fill="#D83620" d="M34.373 20.862L29.99 19.75l2.554 5.813 4.382 1.114-2.554-5.814zM51.95 30.492l-1.366-.346 5.044-3.882 1.366.348-5.044 3.88z"/>
    <path fill="#E94C2D" d="M34.281 13.286c-.648.123-1.3.21-1.958.26-1.498.108-3.037.014-4.473-.451-1.727-.559-3.377-1.543-4.662-2.826-.528-.526-1.01-1.117-1.332-1.792-.025-.05-.047-.104-.072-.158-.062.018-.123.036-.181.058-.612.212-1.205.562-1.57 1.11-.033.05-.062.1-.091.148l-.011.018c-.04.082-.076.165-.109.252-.123.346-.134.717-.069 1.074.163.88.724 1.666 1.318 2.314.778.855 1.719 1.565 2.721 2.138 1 .573 2.082 1.024 3.214 1.258 1.86.39 3.804.267 5.657-.101.684-.137 1.357-.306 2.023-.512.218-.068.435-.14.652-.216.112-.04.239-.076.347-.13.015-.007.03-.01.044-.018-.203-.703-.597-1.34-1.035-1.921-.134-.173-.272-.34-.413-.505z"/>
    <path fill="#EC6D55" d="M30.593 5.9c-.937-.429-1.915-.775-2.924-.984-1.126-.23-2.31-.31-3.442-.097-.814.151-1.676.468-2.226 1.117-.058.069-.109.137-.156.21-.025.035-.532.93-.752 1.333-.388.707-.79 1.41-1.144 2.134-.004.01-.007.022-.004.014.03-.046.058-.097.09-.147.366-.548.96-.894 1.572-1.11.061-.022.119-.04.18-.058.76-.235 1.571-.3 2.364-.27.572.021 1.143.097 1.704.212 1.803.375 3.511 1.16 5.053 2.156 1.238.796 2.418 1.748 3.377 2.873.14.165.278.335.409.508.438.58.832 1.218 1.035 1.921.029-.047.058-.094.083-.14.065-.112.13-.228.192-.343.217-.393.434-.786.648-1.179.213-.393.427-.786.637-1.182.047-.087.094-.177.137-.263.044-.076.08-.152.116-.235-.177-.612-.5-1.175-.869-1.694-.456-.641-.991-1.222-1.567-1.759-1.324-1.233-2.866-2.256-4.513-3.017z"/>
    <path fill="#E94C2D" d="M39.047 12.19c.638-.173 1.264-.378 1.875-.623 1.397-.556 2.733-1.313 3.822-2.358 1.307-1.254 2.356-2.862 2.95-4.574.242-.703.416-1.446.409-2.192 0-.057-.004-.115-.007-.173.061-.01.126-.021.188-.029.644-.075 1.328-.021 1.9.31.05.033.101.062.148.094.008.004.011.007.018.014.073.058.145.116.21.18.26.257.435.585.532.934.24.862.084 1.813-.163 2.657-.322 1.107-.857 2.156-1.505 3.107-.648.952-1.422 1.828-2.335 2.534-1.502 1.161-3.304 1.9-5.128 2.38-.673.176-1.357.316-2.045.421-.224.036-.452.065-.68.09-.12.015-.246.036-.37.036-.014 0-.032.004-.047.004-.126-.721-.054-1.467.087-2.177.037-.213.087-.426.142-.635z"/>
    <path fill="#EC6D55" d="M39.113 3.943c.651-.797 1.382-1.532 2.197-2.16.912-.699 1.94-1.283 3.05-1.59.8-.215 1.712-.31 2.49.033.08.036.16.076.236.123.04.022.887.602 1.263.869.659.465 1.328.922 1.965 1.416l.011.011c-.047-.032-.098-.061-.148-.094-.569-.331-1.256-.385-1.9-.31-.062.008-.127.018-.189.03-.785.122-1.545.414-2.244.789-.506.27-.984.587-1.436.933-1.455 1.125-2.646 2.578-3.594 4.142-.764 1.258-1.404 2.628-1.774 4.055-.054.21-.101.422-.144.635-.142.713-.21 1.46-.087 2.177-.047-.029-.094-.058-.138-.09-.108-.072-.217-.148-.325-.224-.37-.256-.735-.515-1.1-.775-.366-.26-.732-.522-1.094-.786-.08-.057-.159-.119-.239-.176-.072-.05-.14-.101-.206-.159-.108-.627-.069-1.276.036-1.9.127-.774.355-1.531.634-2.267.651-1.687 1.588-3.28 2.736-4.682z"/>
    <path fill="#EB5F3B" d="M40.094 14.166l-5.889 1.351-.427-1.849c-.376-1.618.637-3.233 2.266-3.608 1.625-.375 3.246.634 3.623 2.256l.427 1.85z"/>
    <path fill="#F6E266" d="M47.475 10.16L16.12 17.364l1.395 6.024 31.355-7.205-1.395-6.023z"/>
    <path fill="#EB5F3B" d="M34.708 13.093l-5.822 1.338 1.395 6.024 5.823-1.338-1.396-6.024z"/>
    <path fill="#F5C91D" d="M60.154 7.247l-12.78 2.937 1.396 6.024 12.78-2.937-1.395-6.024z"/>
    <path fill="#E94C2D" d="M54.667 8.508l-1.812.416 1.395 6.024 1.813-.417-1.396-6.023z"/>
    <path fill="#EB5F3B" d="M2.26 13.067c.131.293 0 .638-.3.771-.296.13-.645 0-.78-.297-.13-.293 0-.637.3-.77.301-.134.65 0 .78.296zM2.622 23.236c.13.293 0 .637-.3.77-.301.134-.645 0-.78-.296-.13-.293 0-.638.3-.771.296-.13.645.004.78.297zM32.038 39.985c.13.293 0 .638-.3.771-.297.13-.645 0-.78-.297-.13-.293 0-.638.3-.771.297-.13.645 0 .78.297zM56.367 42.423c.13.293 0 .637-.3.77-.297.13-.645 0-.78-.296-.13-.293 0-.638.3-.771.297-.13.65.004.78.297zM24.865 37.935c.13.293 0 .637-.3.771-.297.13-.645 0-.78-.297-.131-.293 0-.637.3-.771.296-.13.65.004.78.297zM9.586 25.98c.34.757-.004 1.645-.77 1.985-.767.336-1.665-.005-2.009-.763-.34-.758.005-1.645.771-1.985.771-.34 1.668.004 2.008.762zM18.35 40.368c.243.543-.005 1.18-.554 1.422-.549.24-1.193-.005-1.437-.547-.244-.543.004-1.18.553-1.422.549-.24 1.193.005 1.437.547zM30.383 45.95c.244.543-.004 1.18-.553 1.421-.549.242-1.193-.004-1.437-.546-.244-.543.004-1.18.553-1.422.548-.24 1.193.005 1.437.547zM10.1 33.534l-2.879 2.605 1.66 3.493-3.393-1.904-2.849 2.645.78-3.781L0 34.73l3.876-.435.732-3.79 1.62 3.51 3.872-.482zM44.956 51.007l-1.568-.461-.91 1.343-.044-1.615-1.572-.439 1.542-.538-.066-1.62.998 1.284 1.533-.56-.923 1.335 1.01 1.27zM8.184 9.902l-1.568-.457-.906 1.344-.044-1.615-1.576-.44 1.542-.542-.066-1.615.998 1.283 1.533-.56-.924 1.331 1.01 1.27z"/>
    <path fill="#B00B00" d="M60.82 35.954c-.573.183-1.152.337-1.742.457-1.347.275-2.747.36-4.1.11-1.631-.304-3.24-.997-4.552-2.004-.538-.412-1.047-.887-1.417-1.459-.03-.045-.058-.091-.081-.137-.052.023-.104.046-.156.074-.527.264-1.024.647-1.29 1.179-.023.046-.046.097-.064.143 0 .006-.006.011-.006.017-.029.08-.052.16-.069.24-.087.333-.052.67.052.98.255.771.85 1.412 1.463 1.927.804.681 1.741 1.208 2.719 1.608.971.4 2.007.681 3.06.761 1.729.132 3.475-.2 5.112-.744.602-.2 1.192-.434 1.77-.692.191-.086.376-.177.561-.269.099-.051.208-.097.301-.154.011-.006.023-.012.04-.023-.266-.607-.7-1.139-1.162-1.608-.15-.138-.29-.275-.44-.406z"/>
    <path fill="#F94B29" d="M56.614 29.734c-.896-.28-1.827-.475-2.764-.544-1.047-.074-2.129-.011-3.13.315-.716.229-1.463.618-1.885 1.264-.046.069-.08.138-.116.206-.017.035-.37.899-.526 1.288-.266.68-.55 1.362-.786 2.048-.006.012-.006.017 0 .012.023-.046.04-.098.063-.143.266-.532.764-.916 1.29-1.179.052-.029.104-.046.156-.074.66-.298 1.388-.453 2.106-.515.52-.046 1.046-.046 1.567-.006 1.677.126 3.314.64 4.83 1.35 1.214.572 2.394 1.294 3.395 2.192.144.132.289.269.428.406.468.47.896 1.002 1.162 1.608.023-.046.04-.092.058-.137.046-.109.092-.218.133-.332.15-.378.3-.756.445-1.133.15-.378.295-.755.44-1.139.029-.086.064-.166.092-.252.03-.074.058-.148.076-.223-.232-.532-.59-1.001-.984-1.425-.486-.526-1.04-.984-1.625-1.401-1.324-.95-2.846-1.694-4.425-2.186z"/>
    <path fill="#B00B00" d="M65.007 34.414c.555-.229 1.099-.486 1.625-.778 1.197-.664 2.32-1.499 3.181-2.563 1.035-1.282 1.799-2.85 2.134-4.458.14-.658.209-1.35.116-2.02-.006-.046-.017-.097-.029-.148.058-.018.11-.035.168-.046.573-.143 1.203-.172 1.758.057.046.023.099.046.145.069.005.005.011.005.017.011.07.04.145.086.208.137.266.2.463.475.596.779.318.75.29 1.619.162 2.409-.162 1.035-.526 2.037-1 2.97-.475.932-1.07 1.808-1.817 2.551-1.22 1.22-2.77 2.089-4.367 2.73-.59.234-1.191.44-1.798.618-.203.057-.4.108-.602.16-.11.029-.22.063-.33.074-.011 0-.028.006-.04.012-.197-.635-.22-1.31-.18-1.968.012-.206.03-.401.053-.596z"/>
    <path fill="#F94B29" d="M64.099 26.987c.497-.79 1.07-1.54 1.735-2.197.746-.733 1.602-1.38 2.58-1.785.7-.287 1.515-.475 2.261-.258.075.023.15.052.226.08.04.017.873.44 1.249.635.653.344 1.313.675 1.949 1.047.006.006.017.012.012.006-.047-.023-.093-.046-.145-.069-.555-.234-1.18-.2-1.758-.057-.058.023-.116.04-.174.058-.7.2-1.347.555-1.937.966-.428.304-.822.641-1.192 1.008-1.186 1.178-2.094 2.626-2.77 4.142-.544 1.22-.966 2.524-1.128 3.857-.023.195-.04.39-.058.59-.04.657-.023 1.338.18 1.968-.047-.017-.093-.04-.134-.063-.11-.052-.214-.109-.318-.166-.364-.189-.729-.378-1.087-.572-.365-.195-.723-.384-1.082-.578-.08-.046-.156-.086-.237-.132-.07-.034-.139-.074-.208-.12-.174-.55-.208-1.139-.191-1.71.023-.71.139-1.42.307-2.112.387-1.602 1.046-3.142 1.92-4.538z"/>
    <path fill="#FA5B3C" d="M66.187 36.068l-5.171 1.9-.607-1.614c-.532-1.413.196-2.981 1.625-3.507 1.428-.527 3.013.194 3.545 1.608l.608 1.613z"/>
    <path fill="#fff" d="M70.887 37.93l-23.02 8.448 7 18.67 23.02-8.448-7-18.67z"/>
    <path fill="#F94B29" d="M61.516 41.37l-4.274 1.568 7 18.67 4.274-1.568-7-18.67z"/>
    <path fill="#E5E5E5" d="M80.196 34.515l-9.382 3.443 7 18.67 9.382-3.443-7-18.67z"/>
    <path fill="#F94B29" d="M76.166 35.994l-1.328.487 7 18.67 1.329-.487-7-18.67z"/>
    <path fill="#fff" d="M69.239 33.54l-23.812 8.738 1.648 4.394 23.811-8.739-1.647-4.394z"/>
    <path fill="#F94B29" d="M59.867 36.981l-4.273 1.568 1.647 4.394 4.273-1.568-1.647-4.394z"/>
    <path fill="#E5E5E5" d="M79.34 29.832l-10.173 3.733 1.647 4.394 10.174-3.733-1.648-4.394z"/>
    <path fill="#F94B29" d="M74.523 31.604l-1.329.487 1.648 4.394 1.328-.487-1.647-4.394z"/>
    <path fill="#E5E5E5" d="M80.195 34.519L47.869 46.382l.444 1.186L80.64 35.705l-.444-1.186z"/>
    <path fill="#EB5F3B" d="M69.502 53.967c-.29-.138-.416-.484-.276-.78.14-.291.49-.42.786-.282.29.138.416.484.275.78-.14.291-.489.42-.785.282zM49.452 67.926c-.29-.138-.417-.484-.276-.78.14-.291.489-.42.785-.281.29.137.417.483.276.78-.14.29-.495.418-.785.28zM76.283 50.86c-.29-.136-.416-.483-.276-.78.14-.29.49-.418.786-.28.29.137.416.483.276.78-.14.29-.495.418-.786.28zM85.01 51.73c-.753-.354-1.072-1.251-.713-2.007.362-.753 1.265-1.078 2.021-.726.753.354 1.072 1.251.713 2.007-.363.76-1.269 1.08-2.022.726zM79.637 44.78c-.54-.252-.767-.897-.509-1.437.26-.54.909-.772 1.448-.519.54.254.768.899.509 1.438-.259.54-.908.772-1.448.519zM66.862 48.365c-.54-.253-.768-.898-.51-1.437.26-.54.909-.772 1.448-.519.54.253.768.898.51 1.438-.26.54-.909.772-1.448.518zM90.36 44.606l.482-3.847-3.54-1.573 3.817-.76.433-3.857 1.88 3.376 3.808-.809-2.656 2.848 1.92 3.352-3.521-1.611-2.622 2.881zM52.503 53.998l1.49-.668-.187-1.611 1.088 1.197 1.48-.688-.818 1.41 1.107 1.186-1.595-.326-.797 1.421-.172-1.613-1.596-.308z"/>
    <defs>
        <linearGradient id="paint0_linear" x1="20.516" x2="21.021" y1="60.66" y2="70.255" gradientUnits="userSpaceOnUse">
            <stop stop-color="#E2ECF5"/>
            <stop offset="1" stop-color="#E8F1FA"/>
        </linearGradient>
        <linearGradient id="paint1_linear" x1="46.458" x2="61.119" y1="28.379" y2="28.379" gradientUnits="userSpaceOnUse">
            <stop stop-color="#ECC335"/>
            <stop offset=".046" stop-color="#EDC234"/>
            <stop offset=".612" stop-color="#F3B722"/>
            <stop offset="1" stop-color="#F5B31A"/>
        </linearGradient>
    </defs>
</svg>
