<svg xmlns="http://www.w3.org/2000/svg" width="360" height="570" fill="none" viewBox="0 0 360 570">
    <mask id="7gf4tvv30a" width="360" height="570" x="0" y="0" maskUnits="userSpaceOnUse">
        <path fill="#C4C4C4" d="M0 0H360V570H0z"/>
    </mask>
    <g mask="url(#7gf4tvv30a)">
        <g filter="url(#filter0_f)" opacity=".6">
            <path fill="#4F32C1" d="M172 421c-120.374-66.382 42.349-284.862 153-277 145.901 10.366 233.036 204.883 231.815 285.354-1.22 80.471-78.191 161.234-181.968 146.935C271.069 561.99 292.374 487.382 172 421z"/>
        </g>
        <g filter="url(#filter1_f)" opacity=".5">
            <path fill="#91BDFF" d="M328.685 442.558c87.503-6.908 13.114 66.249-13.217 104.72-75.543 65.489-155.534 23.43-186.344-35.448-30.81-58.878-22.986-152.59 35.682-189.659 58.669-37.068 76.377 127.296 163.879 120.387z"/>
        </g>
        <g filter="url(#filter2_f)" opacity=".3">
            <path fill="#FF8A8A" d="M357.322 311.265c113.104-9.429 16.153 80.315-18.313 127.356-98.352 80.444-201.172 30.305-240.268-40.846-39.096-71.152 43.941 16.06 120.159-29.662 76.218-45.722 25.319-47.419 138.422-56.848z"/>
        </g>
        <g filter="url(#filter3_f)" opacity=".3">
            <path fill="#FF8A8A" d="M97.636 123.669c65.075-5.425 9.293 46.21-10.537 73.276C30.51 243.23-28.648 214.382-51.143 173.444c-22.494-40.938 25.283 9.24 69.136-17.067 43.853-26.306 14.567-27.283 79.643-32.708z"/>
        </g>
    </g>
    <defs>
        <filter id="filter0_f" width="587.265" height="594.152" x="49.563" y="63.793" color-interpolation-filters="sRGB" filterUnits="userSpaceOnUse">
            <feFlood flood-opacity="0" result="BackgroundImageFix"/>
            <feBlend in="SourceGraphic" in2="BackgroundImageFix" result="shape"/>
            <feGaussianBlur result="effect1_foregroundBlur" stdDeviation="40"/>
        </filter>
        <filter id="filter1_f" width="418.664" height="423.705" x="31.405" y="236.72" color-interpolation-filters="sRGB" filterUnits="userSpaceOnUse">
            <feFlood flood-opacity="0" result="BackgroundImageFix"/>
            <feBlend in="SourceGraphic" in2="BackgroundImageFix" result="shape"/>
            <feGaussianBlur result="effect1_foregroundBlur" stdDeviation="40"/>
        </filter>
        <filter id="filter2_f" width="541.828" height="389.269" x="-21.255" y="200.576" color-interpolation-filters="sRGB" filterUnits="userSpaceOnUse">
            <feFlood flood-opacity="0" result="BackgroundImageFix"/>
            <feBlend in="SourceGraphic" in2="BackgroundImageFix" result="shape"/>
            <feGaussianBlur result="effect1_foregroundBlur" stdDeviation="55"/>
        </filter>
        <filter id="filter3_f" width="405.168" height="317.391" x="-166.894" y="13.273" color-interpolation-filters="sRGB" filterUnits="userSpaceOnUse">
            <feFlood flood-opacity="0" result="BackgroundImageFix"/>
            <feBlend in="SourceGraphic" in2="BackgroundImageFix" result="shape"/>
            <feGaussianBlur result="effect1_foregroundBlur" stdDeviation="55"/>
        </filter>
    </defs>
</svg>
