<svg width="100" height="100" viewBox="0 0 100 100" fill="none" xmlns="http://www.w3.org/2000/svg">
<path d="M50 6.25C25.625 6.25 6.25 25.625 6.25 50C6.25 74.375 25.625 93.75 50 93.75C74.375 93.75 93.75 74.375 93.75 50C93.75 25.625 74.375 6.25 50 6.25ZM66.875 71.875L50 55L33.125 71.875C33.125 71.875 30.25 74 28.125 71.875C26 69.75 28.125 66.875 28.125 66.875L45 50L28.125 33.125C28.125 33.125 26.5 30.5 28.5 28.5C30.5 26.5 33.125 28.125 33.125 28.125L50 45L66.875 28.125C68 27 70.78 27.03 71.875 28.125C73.393 29.643 73 32 71.875 33.125L55 50L71.875 66.875C71.875 66.875 74 69.875 71.875 71.875C69.75 73.875 66.875 71.875 66.875 71.875Z" fill="#FF8080"/>
</svg>
