<svg width="300" height="120" viewBox="0 0 300 120" fill="none" xmlns="http://www.w3.org/2000/svg">
<mask id="path-1-inside-1" fill="white">
<path fill-rule="evenodd" clip-rule="evenodd" d="M10 0C4.47715 0 0 4.47715 0 10V110C0 115.523 4.47715 120 10 120H110C115.523 120 120 115.523 120 110C120 115.523 124.477 120 130 120H290C295.523 120 300 115.523 300 110V10C300 4.47715 295.523 0 290 0H130C124.477 0 120 4.47715 120 10C120 4.47715 115.523 0 110 0H10Z"/>
</mask>
<path fill-rule="evenodd" clip-rule="evenodd" d="M10 0C4.47715 0 0 4.47715 0 10V110C0 115.523 4.47715 120 10 120H110C115.523 120 120 115.523 120 110C120 115.523 124.477 120 130 120H290C295.523 120 300 115.523 300 110V10C300 4.47715 295.523 0 290 0H130C124.477 0 120 4.47715 120 10C120 4.47715 115.523 0 110 0H10Z" fill="url(#paint0_linear)"/>
<path d="M1 10C1 5.02944 5.02944 1 10 1V-1C3.92487 -1 -1 3.92487 -1 10H1ZM1 110V10H-1V110H1ZM10 119C5.02944 119 1 114.971 1 110H-1C-1 116.075 3.92487 121 10 121V119ZM110 119H10V121H110V119ZM119 110C119 114.971 114.971 119 110 119V121C116.075 121 121 116.075 121 110H119ZM130 119C125.029 119 121 114.971 121 110H119C119 116.075 123.925 121 130 121V119ZM290 119H130V121H290V119ZM299 110C299 114.971 294.971 119 290 119V121C296.075 121 301 116.075 301 110H299ZM299 10V110H301V10H299ZM290 1C294.971 1 299 5.02944 299 10H301C301 3.92487 296.075 -1 290 -1V1ZM130 1H290V-1H130V1ZM121 10C121 5.02944 125.029 1 130 1V-1C123.925 -1 119 3.92487 119 10H121ZM110 1C114.971 1 119 5.02944 119 10H121C121 3.92487 116.075 -1 110 -1V1ZM10 1H110V-1H10V1Z" fill="#6569EE" mask="url(#path-1-inside-1)"/>
<path d="M0 10C0 4.47715 4.47715 0 10 0V120C4.47715 120 0 115.523 0 110V10Z" fill="#6569EE"/>
<g clip-path="url(#clip0)">
<path d="M119.747 102.354C119.845 102.354 119.923 102.433 119.923 102.532C119.923 102.631 119.845 102.71 119.747 102.71C119.649 102.71 119.57 102.631 119.57 102.532C119.57 102.433 119.649 102.354 119.747 102.354Z" fill="#6569EE"/>
<path d="M115.711 107.563C115.966 106.789 116.663 106.32 117.261 106.523C117.864 106.72 118.149 107.514 117.894 108.288C117.639 109.063 116.947 109.531 116.344 109.329C116.099 109.25 115.903 109.068 115.77 108.811C115.594 108.451 115.574 107.997 115.711 107.563ZM120.517 102.586C120.742 102.034 121.861 99.3604 122.375 97.491C122.964 95.3601 122.841 95.0247 122.655 95L118.982 102.586C118.222 104.229 118.546 104.328 117.751 104.984C117.246 105.403 116.516 105.802 116.148 106.084C115.697 106.34 115.314 106.789 115.128 107.371C114.937 107.958 114.971 108.589 115.221 109.092C115.422 109.497 115.756 109.793 116.153 109.926C117.08 110.232 118.055 109.561 118.487 108.486C118.761 107.8 118.595 105.906 118.771 105.24C118.889 104.786 119.345 104.219 119.747 103.736C120.022 103.435 120.286 103.139 120.517 102.586Z" fill="#6569EE"/>
<path d="M123.699 108.806C123.571 109.068 123.37 109.245 123.125 109.324C122.522 109.522 121.831 109.058 121.576 108.283C121.321 107.509 121.605 106.72 122.208 106.518C122.811 106.32 123.508 106.784 123.758 107.558C123.9 107.997 123.88 108.451 123.699 108.806ZM119.722 103.736C120.129 104.219 120.58 104.786 120.698 105.235C120.874 105.901 120.708 107.795 120.982 108.481C121.414 109.556 122.39 110.227 123.316 109.921C123.714 109.788 124.047 109.492 124.248 109.087C124.503 108.584 124.537 107.953 124.346 107.366C124.155 106.789 123.777 106.335 123.326 106.084C122.958 105.797 122.228 105.398 121.723 104.984C120.928 104.328 121.252 104.224 120.492 102.586L116.814 95C116.628 95.0197 116.51 95.3601 117.099 97.491C117.614 99.3604 118.732 102.034 118.957 102.586C119.183 103.139 119.448 103.435 119.722 103.736Z" fill="#6569EE"/>
</g>
<path d="M120 89.5V15.5" stroke="#6569EE" stroke-linecap="round" stroke-linejoin="bevel" stroke-dasharray="2 8"/>
<defs>
<linearGradient id="paint0_linear" x1="0" y1="0" x2="19.6777" y2="155.478" gradientUnits="userSpaceOnUse">
<stop stop-color="#E2ECF5"/>
<stop offset="1" stop-color="#E8F1FA"/>
</linearGradient>
<clipPath id="clip0">
<rect width="9.47368" height="15" fill="white" transform="translate(115 95)"/>
</clipPath>
</defs>
</svg>
